<svg xmlns="http://www.w3.org/2000/svg" viewBox="0 0 251 289.83"><g id="ff54bac8-37e3-4cb5-8efe-0fc80bc688a6" data-name="Layer 2"><g id="f1423fe8-0791-48ce-86fb-1edf9bb22fd9" data-name="Layer 1"><polygon points="236 208.71 125.5 272.51 15 208.71 15 81.12 125.5 17.32 236 81.12 236 208.71" fill="none" stroke="#231f20" stroke-miterlimit="10" stroke-width="30"/><path d="M183.53,167.9a37.29,37.29,0,0,1-6.83,21.94q-6.82,9.74-20,15.24t-31.18,5.51q-21.61,0-35.66-7.53A45.91,45.91,0,0,1,73.7,188.6q-6.23-9-6.23-17.58a11.29,11.29,0,0,1,3.74-8.49A13.27,13.27,0,0,1,80.72,159a11.8,11.8,0,0,1,7.92,2.76,21.49,21.49,0,0,1,5.53,8.17,53.35,53.35,0,0,0,6,10.74,23.93,23.93,0,0,0,9.11,7.12q5.88,2.79,15.44,2.8,13.16,0,21.37-5.65t8.22-14.09A14.27,14.27,0,0,0,149.91,160a29.12,29.12,0,0,0-11.46-6.38q-7-2.21-18.78-4.69A146,146,0,0,1,93.32,141a42.16,42.16,0,0,1-16.83-12.39q-6.22-7.86-6.23-19.51a31.65,31.65,0,0,1,6.58-19.74q6.57-8.64,19-13.27t29.29-4.64a78.13,78.13,0,0,1,23.26,3.08,50.53,50.53,0,0,1,16.29,8.17,34.72,34.72,0,0,1,9.46,10.7,23,23,0,0,1,3,10.92,13,13,0,0,1-13.05,12.67c-3.38,0-6-.78-7.72-2.34a31.5,31.5,0,0,1-5.73-7.67,35.06,35.06,0,0,0-9.56-11.88q-5.58-4.27-17.93-4.27-11.46,0-18.48,4.63t-7,11.16a10.69,10.69,0,0,0,2.39,7,19.77,19.77,0,0,0,6.57,5,46.49,46.49,0,0,0,8.47,3.3q4.27,1.2,14.15,3.49,12.34,2.67,22.36,5.88a70.4,70.4,0,0,1,17,7.8,33,33,0,0,1,11,11.61Q183.54,157.72,183.53,167.9Z" fill="#231f20"/></g></g></svg>